<?xml version="1.0" encoding="UTF-8" standalone="no"?>
<!-- Generator: Fusion 360, Shaper Origin Export Add-In, Version 1.6.10  -->

<svg
   shaper:fusionaddin="version:1.6.10"
   width="7.0161157cm"
   height="3.8095896cm"
   version="1.1"
   x="0cm"
   y="0cm"
   viewBox="0 0 7.0161154 3.8095895"
   enable-background="new 0 0 6.8 6.8818407"
   xml:space="preserve"
   id="svg1774"
   sodipodi:docname="MythDigLogo1.0.svg"
   inkscape:version="1.3.2 (091e20e, 2023-11-25, custom)"
   inkscape:export-filename="MythDigLogoPlainPath13.png"
   inkscape:export-xdpi="362.02368"
   inkscape:export-ydpi="362.02368"
   xmlns:inkscape="http://www.inkscape.org/namespaces/inkscape"
   xmlns:sodipodi="http://sodipodi.sourceforge.net/DTD/sodipodi-0.dtd"
   xmlns="http://www.w3.org/2000/svg"
   xmlns:svg="http://www.w3.org/2000/svg"
   xmlns:shaper="http://www.shapertools.com/namespaces/shaper"><defs
     id="defs1778" /><sodipodi:namedview
     id="namedview1776"
     pagecolor="#ffffff"
     bordercolor="#666666"
     borderopacity="1.0"
     inkscape:showpageshadow="2"
     inkscape:pageopacity="0.0"
     inkscape:pagecheckerboard="0"
     inkscape:deskcolor="#d1d1d1"
     inkscape:document-units="cm"
     showgrid="false"
     inkscape:zoom="5.6568542"
     inkscape:cx="161.75068"
     inkscape:cy="79.284349"
     inkscape:window-width="3440"
     inkscape:window-height="1369"
     inkscape:window-x="-8"
     inkscape:window-y="-8"
     inkscape:window-maximized="1"
     inkscape:current-layer="g3335" /><g
     id="g3335"
     transform="translate(1.9694503,0.69067945)"><path
       d="m -0.56868313,-0.5486788 q 0,-0.0634999 0.0338666,-0.0945444 0.0338666,-0.0324555 0.0973666,-0.0324555 h 0.24553315 q 0.0634999,0 0.09736659,0.0324555 0.03386664,0.0310444 0.03386664,0.0945444 v 0.25541092 q 0,0.0409222 -0.01975554,0.0691444 -0.01834443,0.0268111 -0.05079996,0.0381 0.0705555,0.0254 0.0705555,0.11571102 V 0.1907429 q 0,0.0634999 -0.03386664,0.0959555 -0.03386664,0.0310444 -0.09736659,0.0310444 H -0.4374499 q -0.0635,0 -0.0973666,-0.0310444 -0.0338666,-0.0324555 -0.0338666,-0.0959555 v -0.2610554 q 0,-0.09031104 0.0705555,-0.11571102 -0.0324555,-0.0112889 -0.0522111,-0.0381 -0.0183444,-0.0282222 -0.0183444,-0.0691444 z m 0.18062208,0.68297726 H -0.2413056 V -0.09289026 H -0.34713886 V -0.27774567 H -0.2413056 V -0.4922344 h -0.14675545 z m 1.12747695,0 H 0.9920046 V -0.09430137 H 0.7394159 V -0.67567871 H 1.1726267 V -0.4922344 H 0.92003798 v 0.21448873 H 1.0413934 q 0.0635,0 0.097367,0.0324555 0.033867,0.0310444 0.033867,0.0945444 v 0.34148863 q 0,0.0634999 -0.033867,0.0959555 -0.033867,0.0310444 -0.097367,0.0310444 H 0.7394159 Z M 1.9727268,-0.67567871 H 2.2634155 V 0.31774276 H 2.0856156 V -0.4922344 H 1.9727268 Z M 3.1143159,0.31774276 3.3090491,-0.4922344 H 3.0635159 v -0.18344431 h 0.4332108 v 0.18485542 q 0,0.0127 -0.00423,0.0310444 -0.00282,0.0169333 -0.00706,0.0282222 L 3.3019935,0.31774276 Z"
       id="text1"
       style="font-size:1.41111px;line-height:1.25;font-family:'Mandalore Title';-inkscape-font-specification:'Mandalore Title, Normal';font-variant-ligatures:none;stroke-width:0.0264583"
       aria-label="8 5 1 7" /><path
       id="path1756"
       style="fill:#960000;fill-opacity:1;stroke:#000000;stroke-width:0.02;stroke-dasharray:none;stroke-opacity:1"
       d="M 0,0 0.40591838,0.76672323 1.0373527,1.1275798 1.1275798,1.8041276 1.5334981,1.5334981 1.9394165,1.8041276 2.0296436,1.1275798 2.6610779,0.76672323 3.0669963,0 2.6159644,0.36080485 1.5334981,0.5863208 0.4510319,0.36080485 Z m 0.4510319,0.49614543 0.9020638,0.2705778 -0.1804024,0.22551595 z m 2.1649325,0 L 1.894303,0.99223918 1.7139006,0.76672323 Z M 1.4432711,0.85695028 1.4883846,1.3079822 1.3079822,1.4432711 1.2611633,1.0920264 Z m 0.1804024,0 L 1.8067114,1.0856702 1.7590141,1.4432711 1.5786117,1.3079822 Z" /><path
       d="M 1.7711268,3.108924 V 1.7837922 l 0.162261,0.108174 z"
       stroke="#646464"
       stroke-width="0.001cm"
       stroke-linecap="round"
       stroke-linejoin="round"
       fill="none"
       id="path1766"
       style="fill:#960000;fill-opacity:1;stroke:#000000;stroke-width:0.02;stroke-dasharray:none;stroke-opacity:1" /><path
       d="M 1.3058838,3.108924 V 1.7837922 l -0.162261,0.108174 z"
       stroke="#646464"
       stroke-width="0.001cm"
       stroke-linecap="round"
       stroke-linejoin="round"
       fill="none"
       id="path1768"
       style="fill:#960000;fill-opacity:1;stroke:#000000;stroke-width:0.02;stroke-dasharray:none;stroke-opacity:1" /><path
       d="m 1.5610569,1.6512628 0.022552,1.3756454 0.157861,-1.2628876 z"
       stroke="#646464"
       stroke-width="0.001cm"
       stroke-linecap="round"
       stroke-linejoin="round"
       fill="none"
       id="path1770"
       style="fill:#960000;fill-opacity:1;stroke:#000000;stroke-width:0.02;stroke-dasharray:none;stroke-opacity:1" /><path
       d="M 1.3355412,1.7640206 1.5159537,1.6512628 1.4934022,3.0269082 Z"
       stroke="#646464"
       stroke-width="0.001cm"
       stroke-linecap="round"
       stroke-linejoin="round"
       fill="none"
       id="path1772"
       style="fill:#960000;fill-opacity:1;stroke:#000000;stroke-width:0.02;stroke-dasharray:none;stroke-opacity:1" /><g
       aria-label="BOUNTY"
       transform="scale(1.0473188,0.95481911)"
       id="text2684"
       style="font-size:1.18231px;line-height:1.25;font-family:'Mandalore Leftalic';-inkscape-font-specification:'Mandalore Leftalic, Normal';fill:#960000;stroke:#000000;stroke-width:0.02;stroke-dasharray:none;stroke-opacity:1"><path
         d="M -1.3762727,2.3303773 H -1.6907671 L -1.8681136,1.4980311 h 0.3144944 q 0.053204,0 0.087491,0.027193 0.034287,0.026011 0.044928,0.079215 l 0.04611,0.2139981 q 0.014188,0.070939 -0.040199,0.089856 0.062662,0.021282 0.080397,0.096949 l 0.04611,0.2187273 q 0.011823,0.053204 -0.011823,0.080397 -0.022464,0.026011 -0.075668,0.026011 z m -0.202175,-0.3452345 -0.033105,-0.1537003 h 0.087491 l -0.037834,-0.1797111 h -0.121778 l 0.1111372,0.5249456 h 0.1217779 l -0.040198,-0.1915342 z"
         id="path5216"
         style="stroke:#000000;stroke-width:0.02;stroke-dasharray:none;stroke-opacity:1" /><path
         d="m -0.89034411,2.3303773 q 0.053204,0 0.0756678,-0.026011 0.0236462,-0.027193 0.0118231,-0.080397 L -0.93527189,1.604439 Q -0.94591269,1.551235 -0.98019969,1.525224 -1.0144867,1.498031 -1.0676906,1.498031 h -0.2045396 q -0.1087726,0 -0.087491,0.1064079 l 0.1324187,0.6195304 q 0.023646,0.1064079 0.1324188,0.1064079 z M -1.0854253,2.1352962 q -0.00236,-0.00236 -0.00591,-0.00236 l -0.00473,-0.00236 -0.00355,-0.00355 q 0,0.00236 -0.00236,-0.00236 -0.00236,-0.00591 -0.00236,-0.00828 l -0.00236,-0.00355 q 0,-0.00118 -0.00118,-0.00236 -0.00118,-0.00118 -0.00118,-0.00118 l -0.00118,-0.00473 -0.00236,-0.00355 q -0.00236,-0.00236 -0.00236,-0.00473 l -0.00118,-0.00591 -0.00355,-0.016552 0.011823,-0.00946 -0.00591,-0.01537 q -0.011823,-0.00946 -0.016552,-0.022464 l -0.00118,-0.00828 q 0,-0.00236 -0.00236,-0.00236 l 0.00118,0.00473 q 0,0 -0.00236,0.00118 -0.00118,0.00118 -0.00118,0.00355 l -0.00355,0.00118 0.00236,0.013005 0.00355,0.020099 q 0.00236,0.00709 0.00118,0.00828 l -0.014188,0.062663 v 0.00355 q 0,0.00118 -0.00118,0.00118 l -0.00118,-0.00236 0.00355,-0.031922 q -0.00118,-0.00473 0,-0.00709 0.00118,-0.00355 0.00118,-0.00591 0.00236,-0.00709 0.00236,-0.013005 0,-0.00591 0.00236,-0.013005 -0.00118,-0.00473 -0.00709,-0.00473 -0.00355,0 -0.00236,0.00473 l -0.00828,0.066209 -0.00236,0.00236 q -0.00355,0 -0.00355,-0.00236 L -1.16464,2.12702 V 2.12584 q 0,-0.00118 0.00118,-0.00236 l 0.00118,-0.014188 q 0,-0.00118 0,-0.00118 0.00118,-0.00118 0.00118,-0.00236 l 0.00473,-0.044928 q -0.00118,-0.00118 -0.00118,-0.00118 0.00118,-0.00118 0.00118,-0.00118 0.00118,-0.00709 0.00355,-0.010641 0.00355,-0.00473 0.00591,-0.010641 0,-0.00355 0.00118,-0.010641 0.00118,-0.00828 0.00236,-0.00828 V 2.012351 L -1.1481,1.992252 -1.15638,1.965059 q -0.00118,-0.00591 -0.00591,-0.00946 -0.00355,-0.00473 -0.00828,-0.00709 0.00118,0.00118 -0.00236,0.00118 -0.00236,0 -0.00709,-0.00236 -0.00355,-0.00355 -0.00591,-0.00473 0,0 -0.00118,-0.00118 0,-0.00118 -0.00118,-0.00355 0,-0.00236 -0.00236,-0.00473 l -0.00118,0.00118 -0.00118,-0.00236 -0.00118,-0.00591 q 0,-0.00118 -0.00355,-0.00828 Q -1.2001,1.914219 -1.20247,1.913039 -1.20483,1.910679 -1.2072,1.908309 L -1.21548,1.887027 q 0,-0.00236 -0.00118,-0.00236 -0.00118,-0.00118 -0.00355,-0.00355 L -1.22257,1.870476 Q -1.22493,1.859835 -1.22021,1.859835 -1.21548,1.858655 -1.2143,1.851555 -1.21785,1.83855 -1.21548,1.83855 -1.21312,1.83737 -1.2143,1.83619 q 0.00118,0 0.00118,-0.00355 -0.00236,-0.00709 -0.00236,-0.011823 0,-0.00946 -0.00118,-0.014188 L -1.21784,1.804269 Q -1.21902,1.799539 -1.2202,1.797179 -1.22138,1.794819 -1.22256,1.791269 L -1.22611,1.774717 q -0.00236,-0.013005 -0.00118,-0.014188 -0.00236,-0.00709 0,-0.00828 0.00236,-0.00236 0.00591,-0.00591 l 0.010641,-0.01537 q 0.00236,-0.00236 0.00473,-0.00355 0.00355,-0.00118 0.00709,-0.00355 l 0.00355,-0.00236 -0.00118,-0.00118 h 0.00118 0.00473 q 0.00355,0 0.00355,-0.00473 0.00236,-0.00236 0.00473,-0.00236 0.00236,0 0.00355,-0.00118 l -0.00236,-0.00355 q -0.00118,-0.00118 -0.00473,-0.01537 l -0.00236,-0.01537 -0.00236,-0.011823 q -0.00236,-0.00355 0.00236,-0.00591 0.00118,0 0.00118,-0.00118 0.00118,-0.00118 0.00118,-0.00236 -0.00118,-0.00355 0,-0.00473 0.00118,-0.011823 0.00355,-0.014188 0.00355,-0.00236 0.010641,-0.00473 l 0.00236,-0.00236 0.00591,-0.00118 q 0.00236,0 0.00473,0.00236 h 0.00591 q 0.010641,0.00355 0.016552,0.011823 0.00709,0.00828 0.013005,0.017735 l 0.00118,0.00118 q 0,-0.00118 0.00236,0.00118 l 0.00473,0.014188 q 0,0.00236 -0.00118,0.00355 l 0.00709,0.031922 q 0.00118,0.00236 0.00473,0.00355 0.00355,0 0.00473,0.00118 0.00355,0.00355 0.00355,0.00591 0,0.00236 0.00236,0.00236 h 0.00118 q 0.00591,-0.016552 0.00709,-0.035469 0.00236,-0.018917 0.00118,-0.035469 -0.00118,-0.00118 -0.00118,-0.00946 v -0.00946 q 0.00118,-0.00118 0.00118,-0.00355 l -0.00118,-0.00591 q 0,0 -0.00118,-0.00473 0,-0.00591 0.00236,-0.00591 0.00236,0 0.00473,0.00709 l 0.00355,0.017735 q 0.00473,0.017735 0.021282,0.017735 0.00236,0 0.00591,0 0.00355,-0.00118 0.00709,-0.00118 0.00355,0 0.00355,0.00118 0.00118,0.00473 -0.00473,0.010641 -0.00236,0.00236 -0.00946,0.00828 -0.00709,0.00473 -0.00946,0.00709 -0.00946,0.00709 -0.011823,0.020099 -0.00118,0.011823 -0.00118,0.026011 0.00118,0.00118 0.00236,0.00236 0.00236,0 0.00236,0 0.014188,0.00709 0.022464,0.026011 0.00946,0.017735 0.011823,0.03074 l 0.00236,0.00118 q 0.00355,0.00236 0.011823,0.00709 0.00946,0.00473 0.011823,0.00591 0.00828,0.00473 0.01537,0.010641 0.007094,0.00473 0.0118231,0.00828 0.007094,0.00828 0.0165523,0.014188 l 0.003547,0.00236 0.002365,0.00236 0.005912,0.00236 0.002365,0.010641 q 0,0.00236 0.001182,0.00355 0.001182,0.00118 0.002365,0.00355 0.001182,0.00355 0.001182,0.00946 l 0.001182,0.011823 q 0.001182,0.00709 -0.002365,0.013005 -0.002365,0.00118 -0.004729,0.00355 -0.002365,0.00118 -0.005912,0.00236 h -0.001182 v -0.00118 q -0.001182,-0.00236 0.003547,-0.00591 0.004729,-0.00355 0.002365,-0.013005 -0.001182,-0.00591 -0.003547,-0.010641 -0.001182,-0.00591 -0.008276,-0.00828 l -0.005912,-0.00236 q -0.004729,-0.00118 -0.005912,-0.00355 -0.001182,-0.00355 -0.007094,-0.00591 h -0.003547 q -0.007094,0 -0.008276,0.00118 l -0.0177347,0.00236 v 0.00473 q 0.00236,0.00236 0.00355,0.00236 0.00236,0 0.00236,-0.00118 0,-0.00118 0.00118,-0.00118 0.00118,0 0.00236,0.00118 0.00118,0 0.00118,0.00118 0.005912,0.014188 0.0118231,0.029558 0.007094,0.014188 0.009458,0.028376 l 0.003547,0.00709 q 0,0.00118 -0.001182,0.00236 0,0 0,0.00236 0.002365,0.00591 0.004729,0.010641 0.002365,0.00355 0.003547,0.00828 l 0.001182,0.00473 q -0.005912,0.00473 -0.008276,0.00946 -0.001182,0.00355 -0.003547,0.00946 -0.002365,0.00236 -0.002365,0.00591 0,0.00118 -0.002365,0.00591 l -0.002365,-0.00828 V 1.963849 l -0.001182,0.00236 q -0.003547,0.00355 -0.002365,0.00355 -0.004729,0 -0.005912,-0.00473 v -0.00118 q 0.002365,-0.00355 0,-0.013005 -0.001182,-0.00946 -0.001182,-0.011823 l -0.00236,-0.00709 0.00118,-0.00118 q 0,-0.00118 -0.00118,-0.00118 0,-0.00118 0,-0.00118 l -0.027193,-0.037834 q -0.00946,-0.00709 -0.010641,-0.01537 0,-0.00473 -0.00236,-0.00709 -0.00591,-0.00591 -0.00591,-0.00709 h -0.00118 q -0.00473,0 -0.00473,0.00236 l 0.00118,0.00473 q 0.011823,0.022464 0.020099,0.041381 0.00828,0.018917 0.022464,0.039016 -0.00236,-0.00828 0.010641,0.022464 0.007094,0.00946 0.0118231,0.016552 0.005912,0.00709 0.0141877,0.016552 0.008276,0.00236 0.009458,0.010641 0.001182,0.00236 0.004729,0.00828 0.004729,0.00591 0.009458,0.014188 l 0.005912,0.00709 v 0.00236 q 0,0.00118 -0.001182,0.00236 0,0.00118 0.001182,0.00355 l 0.003547,0.013005 -0.004729,-0.00355 v 0.00118 q 0.002365,0.00473 0.005912,0.010641 0.004729,0.00473 0.007094,0.010641 0,0.00709 -0.001182,0.00828 0,0.00118 0.002365,0.00591 0.002365,0.00473 0.003547,0.00591 0.001182,0.00236 0.002365,0.00355 0.001182,0 0.001182,0.00118 0,0.00118 -0.001182,0.00236 0,0 0,0 0,0 -0.001182,-0.00118 -0.001182,-0.00236 -0.003547,-0.00236 -0.002365,0 -0.002365,0.00236 0,0.00118 -0.001182,0.00236 V 2.11165 q 0,0 -0.002365,-0.00118 -0.001182,-0.00118 -0.001182,0 -0.002365,0.00118 -0.002365,0.00355 0.001182,0.00118 -0.003547,0.00118 0,0 0.001182,0.00118 0.001182,0 0,0 l -0.001182,0.00236 q 0.004729,0.00355 0.004729,0.00355 0.001182,-0.00118 0.004729,0.00118 0,0.00236 -0.001182,0.00236 v 0.00118 l 0.001182,0.00355 v 0.00118 q 0.001182,0.00118 -0.001182,0.00118 h -0.004729 l -0.002365,-0.00236 -0.004729,0.00355 q -0.002365,0 -0.002365,-0.00118 l -0.002365,-0.00236 -0.002365,0.00828 0.001182,0.00591 q 0,0.00236 0.002365,0.00236 V 2.1483 h -0.001182 -0.002365 q 0,-0.00355 -0.002365,-0.00355 -0.002365,-0.00946 -0.007094,-0.013005 l -0.007094,-0.00828 h -0.005912 v -0.00118 q 0,0.00118 -0.002365,0.00118 -0.003547,0 -0.004729,-0.00473 -0.003547,0.00828 -0.005912,0.00828 l -0.004729,-0.00355 -0.003547,0.00355 q 0,-0.00236 0.001182,-0.00473 0.002365,-0.00236 0.001182,-0.00709 0,0 -0.002365,-0.00118 -0.001182,-0.00236 -0.003547,-0.00236 v 0.00118 0.011823 q 0.00118,0.00355 -0.00355,0.00828 h -0.00236 q -0.00118,0 -0.00236,0.00355 0,0.00236 0,0.00236 0,0.00473 -0.00236,0.00828 -0.00118,0.00236 -0.00118,0.00591 -0.00118,0 0,0.00473 v 0.017735 q 0,0.00355 0,0.00946 0.00118,0.00473 0.00236,0.010641 v 0.00355 h -0.04611 l -0.00473,-0.00946 q -0.00236,-0.00236 -0.00236,-0.00591 l -0.00118,-0.00473 q -0.00591,-0.014188 -0.010641,-0.018917 -0.00236,-0.00473 -0.00591,-0.013005 -0.00236,-0.00946 -0.00355,-0.011823 z m -0.089855,-0.2340974 q 0,0 0,0.00118 0.00118,0.00118 0.00118,0.00236 0.00118,0 0.00236,0.00118 l 0.00236,0.010641 q -0.00118,0 -0.00118,0.00236 v 0.00118 q 0.00118,0.00828 0.00828,0.013005 l -0.00118,-0.00473 h 0.00118 l -0.00236,-0.00828 q 0.00118,0.00118 -0.00118,-0.00236 -0.00118,-0.00355 -0.00118,-0.00591 v -0.00236 h 0.00118 v -0.00355 q -0.00118,-0.00355 0.00236,-0.00709 0.00355,-0.00355 0.00118,-0.011823 -0.00709,-0.00591 -0.00946,-0.013005 -0.00236,-0.00828 -0.00473,-0.014188 v -0.00236 q 0,-0.00118 -0.00355,-0.00355 -0.00236,0.00355 -0.00236,0.00709 0.00118,0.00236 0.00118,0.00591 z m 0.19981037,0.1442418 0.002365,0.00591 q 0.001182,0.00591 0.004729,0.00946 h 0.002365 q 0,0.00473 0.004729,0.00473 h 0.001182 l -0.001182,-0.00828 q -0.002365,-0.00591 -0.004729,-0.013005 -0.002365,-0.00828 -0.007094,-0.014188 h -0.001182 q 0,0.00236 -0.001182,0.00709 0,0.00355 0,0.00591 z m -0.0106408,-0.020099 q 0.001182,0.00355 0.004729,0.00473 0.001182,-0.00118 0.001182,-0.00709 l -0.001182,-0.00236 -0.004729,0.00118 z"
         id="path5218"
         style="stroke:#000000;stroke-width:0.02;stroke-dasharray:none;stroke-opacity:1" /><path
         d="m -0.60895517,2.3303773 q -0.10995483,0 -0.13241872,-0.1064079 L -0.8962565,1.4980311 h 0.15133568 L -0.600679,2.176677 h 0.12177793 L -0.62314289,1.4980311 h 0.15133568 l 0.1548826,0.7259383 q 0.0118231,0.053204 -0.0118231,0.080397 -0.0224639,0.026011 -0.0756678,0.026011 z"
         id="path5220"
         style="stroke:#000000;stroke-width:0.02;stroke-dasharray:none;stroke-opacity:1" /><path
         d="m 0.06496071,2.3303773 -0.2246389,-0.3629691 0.07685015,0.3629691 H -0.23298141 L -0.4103279,1.4980311 h 0.12296023 l 0.23409738,0.4019854 -0.08630863,-0.4019854 h 0.15015337 l 0.1773465,0.8323462 z"
         id="path5222"
         style="stroke:#000000;stroke-width:0.02;stroke-dasharray:none;stroke-opacity:1" /><path
         d="M 0.46458262,1.4980311 0.4976873,1.6517314 H 0.37709168 L 0.5213335,2.3303773 H 0.36999782 L 0.225756,1.6517314 H 0.10516038 L 0.0720557,1.4980311 Z"
         id="path5224"
         style="stroke:#000000;stroke-width:0.02;stroke-dasharray:none;stroke-opacity:1" /><path
         d="m 0.67030539,1.4980311 0.118231,0.2128158 0.0260108,-0.2128158 h 0.15606492 l -0.065027,0.4161731 0.0886733,0.4161731 H 0.84292264 L 0.7542494,1.9130219 0.51424047,1.4980311 Z"
         id="path5226"
         style="stroke:#000000;stroke-width:0.02;stroke-dasharray:none;stroke-opacity:1" /></g><g
       aria-label="HUNTERS"
       transform="scale(0.96824571,1.0327957)"
       id="text2746"
       style="font-size:1.09304px;line-height:1.25;font-family:'Mandalore Super-Italic';-inkscape-font-specification:'Mandalore Super-Italic';fill:#960000;stroke:#000000;stroke-width:0.02;stroke-dasharray:none;stroke-opacity:1"><path
         d="M 2.4013441,1.3849326 2.3007844,1.6920769 h 0.110397 L 2.5117411,1.3849326 H 2.6516502 L 2.4013441,2.1544328 H 2.261435 L 2.3652738,1.8363581 H 2.2548767 L 2.1510379,2.1544328 H 2.0111288 L 2.261435,1.3849326 Z"
         id="path5192"
         style="stroke:#000000;stroke-width:0.02;stroke-dasharray:none;stroke-opacity:1" /><path
         d="m 2.5598353,2.1544328 q -0.1016527,0 -0.069955,-0.098374 L 2.7084888,1.3849326 H 2.8483979 L 2.6439994,2.0123376 H 2.7565825 L 2.960981,1.3849326 h 0.1399091 l -0.218608,0.6711266 q -0.015302,0.049187 -0.05028,0.074327 -0.033884,0.024047 -0.083071,0.024047 z"
         id="path5194"
         style="stroke:#000000;stroke-width:0.02;stroke-dasharray:none;stroke-opacity:1" /><path
         d="M 3.1828673,2.1544328 3.1555413,1.8188695 3.0462373,2.1544328 H 2.9074213 L 3.1577274,1.3849326 h 0.1136762 l 0.015302,0.3716336 0.1213275,-0.3716336 h 0.138816 L 3.2965435,2.1544328 Z"
         id="path5196"
         style="stroke:#000000;stroke-width:0.02;stroke-dasharray:none;stroke-opacity:1" /><path
         d="M 3.966578,1.3849326 3.9206704,1.5270278 H 3.8091803 L 3.6047818,2.1544328 H 3.4648727 L 3.6692712,1.5270278 H 3.5577811 l 0.045908,-0.1420952 z"
         id="path5198"
         style="stroke:#000000;stroke-width:0.02;stroke-dasharray:none;stroke-opacity:1" /><path
         d="M 4.0234169,1.3849326 H 4.3567941 L 4.3108864,1.5270278 H 4.1174184 L 4.0627664,1.6931699 H 4.2234432 L 4.1775356,1.8352651 H 4.0168587 l -0.057931,0.1770725 h 0.193468 L 4.106488,2.1544328 H 3.7731108 Z"
         id="path5200"
         style="stroke:#000000;stroke-width:0.02;stroke-dasharray:none;stroke-opacity:1" /><path
         d="m 4.7043812,1.3849326 q 0.1005597,0 0.069955,0.098374 l -0.089629,0.2743531 q -0.013116,0.039349 -0.042629,0.056838 -0.029512,0.016396 -0.066675,0.018582 l 0.00328,0.3213538 H 4.4344003 l -0.00109,-0.3027721 0.051373,-0.1584908 h 0.080885 L 4.6202171,1.5270278 H 4.507634 L 4.3032355,2.1544328 H 4.1633264 L 4.4136326,1.3849326 Z"
         id="path5202"
         style="stroke:#000000;stroke-width:0.02;stroke-dasharray:none;stroke-opacity:1" /><path
         d="M 4.6584729,2.0123376 H 4.854127 L 4.912058,1.8352651 H 4.818057 q -0.1016527,0 -0.069955,-0.098374 L 4.831173,1.4833058 q 0.015302,-0.049187 0.049187,-0.073234 0.034977,-0.02514 0.084164,-0.02514 h 0.2339106 l -0.045908,0.142096 H 4.9568728 l -0.054652,0.1661421 h 0.094001 q 0.1005597,0 0.069955,0.098374 l -0.08635,0.2645157 q -0.015302,0.049187 -0.05028,0.074327 -0.033884,0.024047 -0.083071,0.024047 H 4.6125652 Z"
         id="path5204"
         style="stroke:#000000;stroke-width:0.02;stroke-dasharray:none;stroke-opacity:1" /></g><path
       style="fill:#960000;stroke:#000000;stroke-width:1.13386;stroke-linecap:square;stroke-linejoin:round;stroke-dasharray:none;stroke-opacity:1;paint-order:markers stroke fill"
       d="M 55.780701,37.25926 C 54.672488,36.984775 53.742278,36.27184 53.125,35.223868 c -0.465414,-0.79015 -0.5,-1.29849 -0.5,-7.348868 0,-6.100468 0.03149,-6.553783 0.512253,-7.375 0.281739,-0.48125 0.86803,-1.1 1.30287,-1.375 0.835584,-0.528438 1.026624,-0.875 0.482337,-0.875 -0.598784,0 -1.91411,-1.540563 -2.189951,-2.564957 -0.171439,-0.636677 -0.241572,-3.144621 -0.189737,-6.7850235 0.0791,-5.5550762 0.104611,-5.8110205 0.669921,-6.720291 0.323231,-0.5198993 1.054481,-1.19450702 1.625,-1.49912822 0.98439,-0.52560258 1.330635,-0.5539012 6.787307,-0.5547285 3.1625,-4.7948e-4 6.168563,0.0879797 6.680141,0.1965759 0.511577,0.10859622 1.28625,0.49709342 1.721494,0.86332712 C 71.406359,2.3467365 71.5,2.8752763 71.5,9.5019298 c 0,5.5852182 -0.03708,6.0906652 -0.515572,7.0285952 -0.283565,0.555833 -0.845354,1.198226 -1.24842,1.42754 -0.403065,0.229314 -0.733558,0.477054 -0.734427,0.550533 -8.7e-4,0.07348 0.347269,0.339669 0.77364,0.591533 1.541499,0.910585 1.713146,1.784996 1.719289,8.758439 0.005,5.729235 -0.03496,6.317135 -0.494532,7.266475 -0.330064,0.681823 -0.861161,1.239748 -1.5625,1.641433 -1.035266,0.592937 -1.212946,0.609717 -6.937478,0.65521 -3.23125,0.02568 -6.254935,-0.04742 -6.719299,-0.162428 z M 65,26.375 V 22 H 63 61 V 18.625 15.25 h 2 2 V 11 6.75 H 62.125 59.25 v 12 12 H 62.125 65 Z"
       id="path1"
       transform="matrix(0.02645833,0,0,0.02645833,-1.9565105,-0.67567945)" /><path
       style="fill:#960000;stroke:#000000;stroke-width:1.13386;stroke-linecap:square;stroke-linejoin:round;stroke-dasharray:none;stroke-opacity:1;paint-order:markers stroke fill"
       d="M 102,34.125 V 30.75 h 4.75 4.75 v -4.5 -4.5 H 106.75 102 V 10.875 0 h 8.125 8.125 V 3.375 6.75 h -4.875 -4.875 v 4.231104 4.231104 l 3.48267,0.0814 c 3.75699,0.08781 4.20606,0.234482 5.33098,1.741192 0.79293,1.062049 0.9242,2.351704 0.93039,9.140399 0.006,7.088458 -0.17934,8.662443 -1.16008,9.82799 C 116.00815,37.281708 114.67675,37.5 107.95462,37.5 H 102 Z"
       id="path2"
       transform="matrix(0.02645833,0,0,0.02645833,-1.9565105,-0.67567945)" /><path
       style="fill:#960000;stroke:#000000;stroke-width:1.13386;stroke-linecap:square;stroke-linejoin:round;stroke-dasharray:none;stroke-opacity:1;paint-order:markers stroke fill"
       d="M 153,22.125 V 6.75 h -2.125 -2.125 V 3.375 0 h 5.25 5.25 V 18.75 37.5 H 156.125 153 Z"
       id="path3"
       transform="matrix(0.02645833,0,0,0.02645833,-1.9565105,-0.67567945)" /><path
       style="fill:#960000;stroke:#000000;stroke-width:1.13386;stroke-linecap:square;stroke-linejoin:round;stroke-dasharray:none;stroke-opacity:1;paint-order:markers stroke fill"
       d="m 192.66606,33.9375 c 0.46748,-1.959375 2.12217,-8.85 3.67708,-15.3125 L 199.17026,6.875 194.46013,6.8071018 189.75,6.7392035 V 3.3696018 0 h 8.125 8.125 l 0.0132,3.5625 0.0132,3.5625 -3.70071,15.187398 -3.70071,15.187397 -3.40446,1.03e-4 -3.40445,1.02e-4 z"
       id="path4"
       transform="matrix(0.02645833,0,0,0.02645833,-1.9565105,-0.67567945)" /><path
       d="m 4.3577811,0.42930409 c -9.527e-4,-0.001945 0.00182,-0.007891 0.00672,-0.0143846 0.010893,-0.0144584 0.1617848,-0.25243739 0.1744428,-0.27512193 0.00536,-0.009607 0.014687,-0.0257889 0.020729,-0.0359608 0.020331,-0.0342366 0.026524,-0.0451827 0.028485,-0.0503445 0.00107,-0.002824 0.00544,-0.0106655 0.00972,-0.0174231 0.00427,-0.006757 0.011557,-0.0192404 0.016193,-0.0277409 0.00464,-0.008499999 0.015077,-0.0274762 0.023201,-0.042169 0.00813,-0.0146922 0.017648,-0.0322619 0.021162,-0.0390427 0.00351,-0.006781 0.0088,-0.0164902 0.011749,-0.0215764 0.00618,-0.0106678 0.019951,-0.0368521 0.035649,-0.0678113 0.00602,-0.0118671 0.013714,-0.0263263 0.017106,-0.0321324 0.00339,-0.005806 0.00899,-0.0164397 0.012453,-0.0236312 0.012686,-0.0263786 0.032815,-0.0666707 0.036304,-0.0726669 0.00198,-0.003391 0.00665,-0.0130998 0.010384,-0.0215764 0.00374,-0.008477 0.00796,-0.0172611 0.00939,-0.0195216 0.0036,-0.005716 0.029342,-0.0629434 0.041129,-0.0914425 0.00537,-0.012997 0.011019,-0.0259429 0.01254,-0.0287686 0.00302,-0.005613 0.024339,-0.0578772 0.035623,-0.0873327 0.00389,-0.0101719 0.00793,-0.0194188 0.00898,-0.0205488 0.00104,-0.00113 0.00251,-0.004369 0.00326,-0.007192 0.0026,-0.009782 0.017613,-0.0503888 0.022403,-0.0606192 0.00265,-0.005652 0.00684,-0.0162852 0.0093,-0.0236312 0.015695,-0.0466649 0.017083,-0.0471325 0.030523,-0.0102747 0.010422,0.0285811 0.02958,0.0932312 0.03806,0.1284305 0.00436,0.0180832 0.00905,0.0362182 0.010428,0.0402999 0.00501,0.0148178 0.00908,0.0365573 0.02305,0.12306341 0.013549,0.0838971 0.017002,0.12604237 0.017002,0.20754355 0,0.0754634 -0.00246,0.11425372 -0.01423,0.22398273 -0.00406,0.0378611 -0.00927,0.0905691 -0.011583,0.11712853 -0.00596,0.0685184 -0.00847,0.0761882 -0.028429,0.0869258 -0.00462,0.002485 -0.019348,0.0104153 -0.032734,0.0176251 -0.045181,0.0243332 -0.1151189,0.0566572 -0.1673059,0.0773276 -0.013136,0.005208 -0.024564,0.010332 -0.025393,0.0113981 -0.00227,0.002913 -0.011559,0.002326 -0.011559,-7.2138e-4 0,-0.001469 0.01669,-0.0161128 0.03709,-0.0325487 C 4.810021,0.3224091 4.830117,0.3053516 4.83428,0.3009393 4.83844,0.2965253 4.844922,0.2901381 4.84868,0.2867405 4.864857,0.2721146 4.882536,0.2528105 4.892334,0.239074 c 0.0087,-0.0122011 0.01097,-0.0177497 0.013012,-0.0318505 0.00136,-0.009392 0.00248,-0.0707087 0.00249,-0.13625949 9.8e-6,-0.10532287 -5.725e-4,-0.12312657 -0.00504,-0.1530891 -0.00508,-0.0340741 -0.00784,-0.0458474 -0.01834,-0.0780858 -0.00716,-0.0219849 -0.0092,-0.0250719 -0.016058,-0.0242693 -0.00533,6.2477e-4 -0.011739,0.00854 -0.019777,0.024401 -0.024429,0.0482056 -0.1369088,0.22176322 -0.1785791,0.2755508 -0.00232,0.003006 -0.00762,0.009941 -0.011764,0.0154115 -0.00966,0.0127601 -0.035029,0.0437414 -0.047504,0.0580167 -0.013573,0.0155312 -0.092383,0.0990085 -0.098179,0.1039921 -0.00262,0.002262 -0.00942,0.00873 -0.015095,0.0143767 -0.00567,0.005652 -0.017747,0.017206 -0.026829,0.0256859 -0.00908,0.00848 -0.020892,0.0195804 -0.026244,0.0246658 -0.024062,0.0228645 -0.046783,0.0432729 -0.06514,0.0585069 -0.015302,0.0126993 -0.020251,0.0157334 -0.021499,0.0131811 z m 0.024243,-0.21090667 c -4.257e-4,-0.002142 -4.677e-4,-0.002017 0.012415,-0.0364743 0.016378,-0.0438079 0.020453,-0.0567283 0.026279,-0.0833341 0.010993,-0.0502042 0.012512,-0.0686327 0.00767,-0.0931018 -0.00106,-0.005316998 0.00324,-0.006624 0.033175,-0.0101161 0.025444,-0.002966 0.054409,-0.011792 0.076687,-0.0233615 0.011404,-0.005922 0.014118,-0.001296 0.00636,0.010853 -0.00351,0.005505 -0.010494,0.0183326 -0.01551,0.0285045 -0.00502,0.0101719 -0.012717,0.024288 -0.017113,0.03137 -0.0044,0.007082 -0.00799,0.0132782 -0.00799,0.0137696 0,0.005295 -0.051109,0.0826776 -0.064072,0.0970077 -0.00321,0.003539 -0.00583,0.006866 -0.00583,0.007388 0,0.001278 -0.03995,0.0520705 -0.044014,0.0559579 -0.00344,0.003284 -0.00756,0.004073 -0.00807,0.001534 z"
       style="fill:#960000;stroke:#000000;stroke-width:0.02;stroke-dasharray:none;stroke-opacity:1;fill-opacity:1"
       id="path9516" /><path
       d="m -1.2805548,0.42930462 c 9.527e-4,-0.001945 -0.00182,-0.007891 -0.00672,-0.0143846 -0.010893,-0.0144584 -0.1617848,-0.25243746 -0.1744428,-0.27512195 -0.00536,-0.009606 -0.014687,-0.0257891 -0.020729,-0.0359607 -0.020331,-0.0342365 -0.026524,-0.0451829 -0.028485,-0.0503445 -0.00107,-0.002826 -0.00544,-0.0106654 -0.00972,-0.0174235 -0.00427,-0.006756 -0.011557,-0.0192406 -0.016193,-0.0277412 -0.00464,-0.008500999 -0.015076,-0.027476 -0.023201,-0.0421686 -0.00813,-0.0146922 -0.017648,-0.0322619 -0.021162,-0.0390427 -0.00351,-0.006781 -0.0088,-0.0164902 -0.011749,-0.0215764 -0.00618,-0.0106678 -0.019951,-0.036852 -0.035649,-0.0678113 -0.00602,-0.0118671 -0.013714,-0.0263263 -0.017106,-0.0321324 -0.00339,-0.005806 -0.00899,-0.0164397 -0.012453,-0.0236312 -0.012686,-0.0263786 -0.032815,-0.0666707 -0.036304,-0.0726669 -0.00198,-0.003391 -0.00665,-0.0130998 -0.010384,-0.0215764 -0.00374,-0.008477 -0.00796,-0.0172611 -0.00939,-0.0195216 -0.0036,-0.005716 -0.029342,-0.0629434 -0.041129,-0.0914425 -0.00537,-0.012997 -0.011019,-0.0259429 -0.01254,-0.0287686 -0.00302,-0.005613 -0.024339,-0.0578772 -0.035623,-0.0873327 -0.00389,-0.0101719 -0.00793,-0.0194188 -0.00898,-0.0205488 -0.00104,-0.00113 -0.00251,-0.004369 -0.00326,-0.007192 -0.0026,-0.009782 -0.017613,-0.0503888 -0.022403,-0.0606192 -0.00265,-0.005652 -0.00684,-0.0162852 -0.0093,-0.0236312 -0.015695,-0.0466649 -0.017083,-0.0471324 -0.030523,-0.0102747 -0.010422,0.0285811 -0.02958,0.0932312 -0.03806,0.1284305 -0.00436,0.0180832 -0.00905,0.0362182 -0.010428,0.0402999 -0.00501,0.0148178 -0.00908,0.0365573 -0.02305,0.12306342 -0.013549,0.0838971 -0.017002,0.12604237 -0.017002,0.20754355 0,0.0754634 0.00246,0.11425371 0.01423,0.22398269 0.00406,0.0378612 0.00927,0.0905692 0.011583,0.11712856 0.00596,0.0685182 0.00847,0.0761884 0.028429,0.0869258 0.00462,0.002485 0.019348,0.0104153 0.032734,0.0176251 0.045181,0.0243332 0.1151189,0.0566573 0.1673059,0.0773276 0.013136,0.005208 0.024563,0.010332 0.025393,0.0113981 0.00227,0.002913 0.011559,0.002326 0.011559,-7.2137e-4 0,-0.001469 -0.01669,-0.0161128 -0.03709,-0.0325488 -0.020398,-0.0164367 -0.040494,-0.0334942 -0.044657,-0.0379064 -0.00416,-0.004414 -0.010642,-0.0108012 -0.0144,-0.0141988 -0.016177,-0.0146259 -0.033856,-0.03393 -0.043654,-0.0476669 -0.0087,-0.0122015 -0.01097,-0.0177497 -0.013012,-0.0318502 -0.00136,-0.009392 -0.00248,-0.0707084 -0.00249,-0.13625945 -9.8e-6,-0.10532286 5.725e-4,-0.12312658 0.00504,-0.15308911 0.00508,-0.0340741 0.00784,-0.0458474 0.01834,-0.0780858 0.00716,-0.0219849 0.0092,-0.0250719 0.016058,-0.0242693 0.00533,6.2477e-4 0.011739,0.00854 0.019777,0.024401 0.024429,0.0482056 0.1369088,0.22176321 0.1785791,0.27555076 0.00232,0.003009 0.00762,0.009941 0.011764,0.0154111 0.00966,0.0127604 0.035028,0.0437413 0.047504,0.0580163 0.013573,0.0155309 0.092383,0.0990086 0.098179,0.10399212 0.00262,0.002262 0.00942,0.00873 0.015095,0.0143767 0.00567,0.005652 0.017747,0.017206 0.026829,0.0256859 0.00908,0.00848 0.020892,0.0195804 0.026244,0.0246658 0.024061,0.0228645 0.046783,0.0432729 0.06514,0.0585069 0.015303,0.0126993 0.020251,0.0157334 0.021499,0.0131811 z m -0.024244,-0.21090666 c 4.257e-4,-0.002143 4.677e-4,-0.002016 -0.012415,-0.0364743 -0.016378,-0.0438079 -0.020453,-0.0567287 -0.026279,-0.0833341 -0.010993,-0.050204 -0.012512,-0.0686325 -0.00767,-0.0931018 0.00106,-0.005318998 -0.00324,-0.006621 -0.033175,-0.0101161 -0.025443,-0.002969 -0.05441,-0.0117919 -0.076687,-0.0233615 -0.011404,-0.005922 -0.014117,-0.001294 -0.00636,0.0108528 0.00351,0.005501 0.010494,0.0183324 0.01551,0.0285049 0.00502,0.0101716 0.012717,0.0242879 0.017113,0.0313699 0.0044,0.007081 0.00799,0.013278 0.00799,0.0137694 0,0.005295 0.051109,0.0826777 0.064072,0.0970077 0.00321,0.003541 0.00583,0.006867 0.00583,0.007391 0,0.001278 0.03995,0.0520704 0.044014,0.0559579 0.00344,0.003287 0.00756,0.004072 0.00807,0.001532 z"
       style="fill:#960000;stroke:#000000;stroke-width:0.02;stroke-dasharray:none;stroke-opacity:1;fill-opacity:1"
       id="path9516-7" /></g></svg>
